<svg xmlns="http://www.w3.org/2000/svg" viewBox="0 0 500 176" enable-background="new 0 0 500 176"><style type="text/css">.st0{fill:#0C2D38;} .st1{fill:#F7931E;}</style><path d="M185.5 74.8c3.6 13 14.1 18.3 27.6 16.4 10.7-1.5 19.3-6.1 25.9-14.4l.5-.1 1 20c-5.2 5.9-14.4 10.9-27.6 12.8-23.6 3.3-43.7-7-47.7-35.7-3.3-23.6 9.8-44.7 33.3-48 22-3.1 37.6 9 40.5 29.5.4 3.2.9 7.3.8 10.3l-54.3 9.2zm-1.6-11l35.8-6c-1.5-10.8-8.1-17.2-19.4-15.6-10.1 1.4-16.3 9.4-16.4 21.6zM252.5 76c7.3 6.6 17.5 10.2 26.4 9.7 6.8-.4 9.9-3 9.7-6.7-.2-2.9-1.7-5-5.6-6.8-5-2.2-12.1-4.1-18.1-6.8-11.4-5-15.3-11.7-15.8-21.7-.7-12.5 9.1-22.5 25.4-23.4 10.5-.5 19 1 26.4 4.5l-3.3 19c-5.7-4.9-15.1-8-21.4-7.7-5.8.3-8.2 2.7-8 6 .2 3.2 1.7 5.2 5.4 6.7 4.4 1.8 12.3 4.3 17.3 6.3 12 4.9 16.2 12.1 16.7 21.9.7 13.7-9.4 23.5-27.7 24.4-11.8.6-21.1-2-27.6-6l.2-19.4zM326.5 23.3l1.9-21.2L349.6 0l-2.2 25.2 20.4 1.8-1.5 17.3-20.4-1.8-2.9 29.8c-1.2 14.3 1.1 19 9.9 24.8l-.1 1.4-22.8.5c-6.5-3.8-9.5-10.3-8.1-25.4l3.2-32.9-14-1.2 1.5-17.3 13.9 1.1zM367.7 61.2c3.9-22.4 22.1-33.1 42.6-29.5 20.7 3.7 34.2 19.4 30.1 42.3-4.4 25-23.7 34.1-43 30.7-21-3.6-33.8-20.3-29.7-43.5zm53.1 9.4c2.2-12.3-2.8-21.8-13.2-23.7-10.2-1.8-18.2 4.9-20.5 17.7-2.3 13 2.1 22.9 13 24.8 10.4 1.9 18.2-4.4 20.7-18.8zM148 124.6l-13.3-46.3c-1.3-4.5-1-8.3 1.3-11.6 2.7-3.8 7.1-6.7 14.3-9 2.7-.9 5.7-1.7 8.2-1.9l-6.9-23.9c-1.5.1-3.4.6-5.3 1.2-10 3.2-15.4 11.8-18.3 21.8L124.2 42l-21.5 7 23.8 82.6 21.5-7zM72.8 153.9l-21-62.1 7.3-2.7C91 77.5 103.7 57.3 93.5 29.5 84.7 5.3 61.9-2.1 33.3 8.3L0 20.5l50.9 144.9c7.1-4 14.3-7.8 21.9-11.5zM39.7 28.2c16-5.8 27.4-2 32 10.7 5 13.6-1.4 24-18.2 30.1l-8.8 3.2-14.8-40.5 9.8-3.5z" class="st0"/><path d="M440.4 124.8c-1.5 4.3.2 8.8 3.8 10.1 2.9 1 4.3 1.5 7.1 2.6 3.6 1.3 7.8-1.1 9.4-5.3 1.7-4.5 3.4-9 5.1-13.5-8.2-3.2-12.4-4.7-20.7-7.5-1.5 4.5-3.1 9-4.7 13.6zM494.9 19.5c-3.3-1.2-4.9-1.8-8.2-3-4.1-1.5-8.8.9-10.3 5.2-1.6 4.5-3.2 9.1-4.8 13.6 9.1 3.1 13.7 4.8 22.7 8.2 1.7-4.5 3.4-9 5.1-13.5 1.7-4.2-.4-9-4.5-10.5zM465.9 118.7c9.5-25 19-50.1 28.4-75.1-9.4 25-18.9 50.1-28.4 75.1zM471.7 35.4c-8.8 25.3-17.7 50.5-26.5 75.8 8.8-25.3 17.7-50.6 26.5-75.8z" class="st1"/><path d="M445.2 111.2c8.3 2.9 12.5 4.4 20.7 7.5 9.5-25 19-50.1 28.4-75.1-9-3.5-13.5-5.1-22.7-8.2-8.7 25.2-17.6 50.5-26.4 75.8z" class="st0"/><g id="XMLID_1_"><path id="XMLID_2_" d="M436.3 142.7l2 9c.6 2.8 2.8 5 5.6 5.6l9 2-9 2c-2.8.6-5 2.8-5.6 5.6l-2 9-2-9c-.6-2.8-2.8-5-5.6-5.6l-9-2 9-2c2.8-.6 5-2.8 5.6-5.6l2-9z" class="st1"/></g><g id="XMLID_3_"><path id="XMLID_4_" d="M411.1 132.6l1.4 6c.4 1.8 1.9 3.3 3.7 3.7l6 1.4-6 1.4c-1.8.4-3.3 1.9-3.7 3.7l-1.4 6-1.4-6c-.4-1.8-1.9-3.3-3.7-3.7l-6-1.4 6-1.4c1.8-.4 3.3-1.9 3.7-3.7l1.4-6z" class="st1"/></g><g id="XMLID_5_"><path id="XMLID_6_" d="M385.8 130.1l1.1 4.7c.3 1.5 1.5 2.6 2.9 2.9l4.7 1.1-4.7 1.1c-1.5.3-2.6 1.5-2.9 2.9l-1.1 4.7-1.1-4.7c-.3-1.5-1.5-2.6-2.9-2.9l-4.7-1.1 4.7-1.1c1.5-.3 2.6-1.5 2.9-2.9l1.1-4.7z" class="st1"/></g></svg>